<svg xmlns="http://www.w3.org/2000/svg" xmlns:xlink="http://www.w3.org/1999/xlink" width="500" zoomAndPan="magnify" viewBox="0 0 375 374.999991" height="500" preserveAspectRatio="xMidYMid meet" version="1.0"><defs><g/><clipPath id="39a951df12"><path d="M 42 123.292969 L 132.527344 123.292969 L 132.527344 187 L 42 187 Z M 42 123.292969 " clip-rule="nonzero"/></clipPath><clipPath id="d2c2e3da48"><path d="M 18.75 144 L 109 144 L 109 209 L 18.75 209 Z M 18.75 144 " clip-rule="nonzero"/></clipPath><clipPath id="b3cb39d2ef"><path d="M 42 166 L 132.527344 166 L 132.527344 231 L 42 231 Z M 42 166 " clip-rule="nonzero"/></clipPath><clipPath id="e6e6bc9a4a"><path d="M 18.800781 188.4375 L 108.792969 188.4375 L 108.792969 251.992188 L 18.800781 251.992188 Z M 18.800781 188.4375 " clip-rule="nonzero"/></clipPath></defs><rect x="-37.5" width="450" fill="#ffffff" y="-37.499999" height="449.999989" fill-opacity="1"/><rect x="-37.5" width="450" fill="#ffffff" y="-37.499999" height="449.999989" fill-opacity="1"/><rect x="-37.5" width="450" fill="#c1ff72" y="-37.499999" height="449.999989" fill-opacity="1"/><g clip-path="url(#39a951df12)"><path fill="#587d9f" d="M 100.527344 166.792969 C 97.46875 166.792969 96.433594 166.363281 86.875 160.792969 C 84.207031 159.25 80.933594 157.363281 76.886719 155.050781 C 80.933594 152.78125 84.164062 150.894531 86.832031 149.351562 C 96.519531 143.78125 97.554688 143.308594 100.527344 143.308594 C 107.027344 143.308594 112.28125 148.578125 112.324219 155.09375 C 112.28125 161.566406 106.984375 166.792969 100.527344 166.792969 Z M 132.472656 155.09375 C 132.472656 155.09375 132.472656 155.007812 132.472656 154.964844 C 132.429688 137.480469 118.09375 123.292969 100.527344 123.292969 C 91.65625 123.292969 87.09375 125.90625 73.65625 133.707031 C 67.285156 137.394531 58.546875 142.449219 45.929688 149.265625 C 43.820312 150.421875 42.484375 152.605469 42.484375 155.050781 C 42.484375 157.449219 43.820312 159.679688 45.929688 160.835938 C 58.714844 167.734375 67.542969 172.835938 73.960938 176.566406 C 87.652344 184.492188 91.785156 186.851562 100.566406 186.851562 C 118.136719 186.851562 132.472656 172.578125 132.472656 155.09375 " fill-opacity="1" fill-rule="nonzero"/></g><g clip-path="url(#d2c2e3da48)"><path fill="#d6e0ed" d="M 50.75 165.035156 C 53.808594 165.035156 54.839844 165.464844 64.445312 171.035156 C 67.113281 172.578125 70.386719 174.464844 74.433594 176.734375 C 70.386719 179.007812 67.15625 180.851562 64.488281 182.4375 C 54.800781 188.007812 53.765625 188.476562 50.792969 188.476562 C 44.292969 188.476562 39.039062 183.207031 39.039062 176.691406 C 38.996094 170.265625 44.292969 165.035156 50.75 165.035156 Z M 77.621094 198.121094 C 83.992188 194.4375 92.730469 189.378906 105.347656 182.523438 C 107.457031 181.363281 108.792969 179.179688 108.792969 176.734375 C 108.792969 174.335938 107.457031 172.105469 105.347656 170.949219 C 92.558594 164.050781 83.777344 158.949219 77.359375 155.222656 C 63.667969 147.292969 59.535156 144.9375 50.75 144.9375 C 33.140625 144.9375 18.800781 159.207031 18.800781 176.691406 L 18.800781 176.78125 C 18.847656 194.261719 33.183594 208.449219 50.75 208.449219 C 59.621094 208.535156 64.140625 205.921875 77.621094 198.121094 " fill-opacity="1" fill-rule="nonzero"/></g><g clip-path="url(#b3cb39d2ef)"><path fill="#30373f" d="M 100.527344 210.207031 C 97.46875 210.207031 96.433594 209.777344 86.875 204.207031 C 84.207031 202.664062 80.933594 200.777344 76.886719 198.464844 C 80.933594 196.191406 84.164062 194.308594 86.832031 192.761719 C 96.519531 187.191406 97.554688 186.722656 100.527344 186.722656 C 107.027344 186.722656 112.28125 191.992188 112.324219 198.507812 C 112.28125 205.019531 106.984375 210.207031 100.527344 210.207031 Z M 132.472656 198.507812 C 132.472656 198.507812 132.472656 198.421875 132.472656 198.378906 C 132.429688 180.894531 118.09375 166.707031 100.527344 166.707031 C 91.65625 166.707031 87.09375 169.320312 73.65625 177.121094 C 67.285156 180.808594 58.546875 185.863281 45.929688 192.679688 C 43.820312 193.835938 42.484375 196.019531 42.484375 198.464844 C 42.484375 200.863281 43.820312 203.09375 45.929688 204.25 C 58.714844 211.148438 67.542969 216.25 73.960938 219.976562 C 87.652344 227.90625 91.785156 230.261719 100.566406 230.261719 C 118.136719 230.304688 132.472656 216.035156 132.472656 198.507812 " fill-opacity="1" fill-rule="nonzero"/></g><g clip-path="url(#e6e6bc9a4a)"><path fill="#587d9f" d="M 50.75 208.535156 C 53.808594 208.535156 54.839844 208.964844 64.445312 214.535156 C 67.113281 216.078125 70.386719 217.964844 74.433594 220.234375 C 70.425781 222.507812 67.15625 224.347656 64.488281 225.890625 C 54.800781 231.464844 53.765625 231.933594 50.792969 231.933594 C 44.292969 231.933594 39.039062 226.664062 39.039062 220.148438 C 38.996094 213.761719 44.292969 208.535156 50.75 208.535156 Z M 77.621094 241.621094 C 83.992188 237.933594 92.730469 232.878906 105.347656 226.019531 C 107.457031 224.863281 108.792969 222.679688 108.792969 220.234375 C 108.792969 217.835938 107.457031 215.605469 105.347656 214.449219 C 92.558594 207.507812 83.734375 202.449219 77.316406 198.722656 C 63.625 190.792969 59.492188 188.4375 50.707031 188.4375 C 33.140625 188.476562 18.800781 202.75 18.800781 220.234375 L 18.800781 220.320312 C 18.847656 237.804688 33.183594 251.992188 50.75 251.992188 C 59.621094 252.035156 64.140625 249.421875 77.621094 241.621094 " fill-opacity="1" fill-rule="nonzero"/></g><g fill="#30373f" fill-opacity="1"><g transform="translate(163.178519, 175.598109)"><g><path d="M 9.351562 -6.203125 L 9.351562 -24.324219 L 11.375 -24.324219 C 16.589844 -24.324219 20.097656 -20.367188 20.097656 -15.285156 C 20.097656 -10.207031 16.546875 -6.203125 11.375 -6.203125 Z M 2.699219 -30.574219 L 2.699219 0 L 11.78125 0 C 20.457031 0 26.976562 -6.652344 26.976562 -15.285156 C 26.976562 -23.917969 20.410156 -30.574219 11.78125 -30.574219 Z M 2.699219 -30.574219 "/></g></g></g><g fill="#30373f" fill-opacity="1"><g transform="translate(198.471039, 175.598109)"><g><path d="M 19.332031 -11.6875 L 11.597656 -11.6875 L 15.464844 -22.570312 Z M 30.753906 0 L 18.34375 -30.574219 L 12.632812 -30.574219 L 0.226562 0 L 7.464844 0 L 9.667969 -6.160156 L 21.3125 -6.160156 L 23.515625 0 Z M 30.753906 0 "/></g></g></g><g fill="#30373f" fill-opacity="1"><g transform="translate(236.191269, 175.598109)"><g><path d="M 15.691406 -24.457031 L 24.414062 -24.457031 L 24.414062 -30.574219 L 0.226562 -30.574219 L 0.226562 -24.457031 L 8.945312 -24.457031 L 8.945312 0 L 15.691406 0 Z M 15.691406 -24.457031 "/></g></g></g><g fill="#30373f" fill-opacity="1"><g transform="translate(267.572489, 175.598109)"><g><path d="M 19.332031 -11.6875 L 11.597656 -11.6875 L 15.464844 -22.570312 Z M 30.753906 0 L 18.34375 -30.574219 L 12.632812 -30.574219 L 0.226562 0 L 7.464844 0 L 9.667969 -6.160156 L 21.3125 -6.160156 L 23.515625 0 Z M 30.753906 0 "/></g></g></g><g fill="#30373f" fill-opacity="1"><g transform="translate(163.178519, 229.156594)"><g><path d="M 40.824219 -30.574219 L 33.40625 -30.574219 L 29.808594 -9.488281 L 23.828125 -30.574219 L 17.21875 -30.574219 L 11.238281 -9.488281 L 7.644531 -30.574219 L 0.226562 -30.574219 L 6.160156 0 L 14.164062 0 L 20.546875 -21.445312 L 26.886719 0 L 34.886719 0 Z M 40.824219 -30.574219 "/></g></g></g><g fill="#30373f" fill-opacity="1"><g transform="translate(210.969236, 229.156594)"><g><path d="M 26.300781 -15.332031 C 26.300781 -10.609375 22.03125 -6.292969 17.308594 -6.292969 C 12.589844 -6.292969 8.316406 -10.609375 8.316406 -15.332031 C 8.316406 -20.050781 12.589844 -24.324219 17.308594 -24.324219 C 22.03125 -24.324219 26.300781 -20.050781 26.300781 -15.332031 Z M 33.046875 -15.285156 C 33.046875 -23.738281 25.761719 -31.023438 17.308594 -31.023438 C 8.855469 -31.023438 1.574219 -23.738281 1.574219 -15.285156 C 1.574219 -6.832031 8.855469 0.449219 17.308594 0.449219 C 25.761719 0.449219 33.046875 -6.832031 33.046875 -15.285156 Z M 33.046875 -15.285156 "/></g></g></g><g fill="#30373f" fill-opacity="1"><g transform="translate(252.331016, 229.156594)"><g><path d="M 9.441406 -10.925781 L 9.488281 -10.925781 L 16.769531 0 L 25.3125 0 L 16.546875 -11.238281 C 20.410156 -12.183594 23.515625 -15.601562 23.515625 -20.769531 C 23.515625 -26.570312 19.109375 -30.574219 14.164062 -30.574219 L 2.699219 -30.574219 L 2.699219 0 L 9.441406 0 Z M 13.039062 -25.265625 C 15.015625 -25.265625 17.085938 -23.558594 17.085938 -20.769531 C 17.085938 -17.847656 15.015625 -16.230469 13.039062 -16.230469 L 9.441406 -16.230469 L 9.441406 -25.265625 Z M 13.039062 -25.265625 "/></g></g></g><g fill="#30373f" fill-opacity="1"><g transform="translate(283.847097, 229.156594)"><g><path d="M 9.441406 -13.667969 L 19.109375 0 L 28.191406 0 L 16.003906 -15.285156 L 27.738281 -30.574219 L 19.109375 -30.574219 L 9.441406 -16.90625 L 9.441406 -30.574219 L 2.699219 -30.574219 L 2.699219 0 L 9.441406 0 Z M 9.441406 -13.667969 "/></g></g></g><g fill="#30373f" fill-opacity="1"><g transform="translate(318.330385, 229.156594)"><g><path d="M 14.566406 -4.765625 C 11.238281 -4.765625 8.363281 -6.429688 8.183594 -10.070312 L 1.347656 -10.070312 C 1.394531 -2.609375 7.554688 0.71875 14.296875 0.71875 C 20.546875 0.71875 26.976562 -1.933594 26.976562 -9.125 C 26.976562 -20.769531 9.304688 -16.859375 9.304688 -22.300781 C 9.304688 -24.59375 11.960938 -25.492188 13.847656 -25.492188 C 17.21875 -25.492188 19.0625 -24.457031 19.421875 -21.265625 L 25.941406 -21.265625 C 25.714844 -28.234375 20.050781 -31.023438 13.757812 -31.023438 C 8.183594 -31.023438 2.335938 -28.054688 2.335938 -21.761719 C 2.335938 -10.476562 20.007812 -14.296875 20.007812 -8.363281 C 20.007812 -5.621094 16.679688 -4.765625 14.566406 -4.765625 Z M 14.566406 -4.765625 "/></g></g></g></svg>